<svg width="54" height="44" viewBox="0 0 54 44" fill="none" xmlns="http://www.w3.org/2000/svg">
<path d="M31.9867 5.45206L41.5703 1.49456C42.2999 1.19329 43.1355 1.54049 43.4368 2.27005L52.0124 23.0372C52.3137 23.7667 51.9665 24.6024 51.2369 24.9036L41.6533 28.8611C40.9237 29.1624 40.0881 28.8152 39.7868 28.0856L31.2112 7.31853C30.9099 6.58897 31.2571 5.75332 31.9867 5.45206Z" fill="black" fill-opacity="0.33" stroke="#55229E" stroke-width="0.78465"/>
<path d="M41.5861 14.5915C43.0166 14.0008 43.7363 12.4566 43.1937 11.1425C42.651 9.82835 41.0514 9.24191 39.6209 9.83263C38.1904 10.4233 37.4707 11.9675 38.0133 13.2817C38.556 14.5958 40.1556 15.1822 41.5861 14.5915Z" fill="#55229E"/>
<path d="M33.5119 25.7786C33.5119 25.7786 5.26969 43.3099 1.98979 36.0458C-1.29012 28.7816 8.27834 24.392 8.27834 24.392C8.27834 24.392 15.9565 25.8259 25.5249 21.4363L34.8473 18.8029C34.8473 18.8029 44.4673 8.48113 46.5884 13.222C48.7096 17.9628 40.2521 24.5117 33.5119 25.7786Z" fill="#9F616A"/>
</svg>
