<svg width="60" height="55" viewBox="0 0 60 55" fill="none" xmlns="http://www.w3.org/2000/svg">
<path d="M51.0513 5.33164L1.41479 19.7936L2.72952 24.306L52.366 9.84405L51.0513 5.33164Z" fill="#55229E"/>
<path d="M7.34521 40.2303L0.0291858 15.1203C-0.0250532 14.9341 -0.0031151 14.734 0.0901706 14.564C0.183456 14.394 0.340448 14.2681 0.526614 14.2138L48.9598 0.102395C49.1459 0.0483385 49.3459 0.0703509 49.5159 0.163603C49.6858 0.256855 49.8118 0.413727 49.8662 0.599785L56.3477 22.8454L56.1471 22.9039L49.6657 0.658229C49.6267 0.525386 49.5367 0.413398 49.4153 0.3468C49.294 0.280201 49.1512 0.264422 49.0182 0.30292L0.585045 14.4143C0.45207 14.4531 0.339933 14.5431 0.2733 14.6645C0.206668 14.7859 0.190998 14.9288 0.229738 15.0618L7.54576 40.1718L7.34521 40.2303Z" fill="#55229E"/>
<path d="M45.9183 22.368C45.7714 22.3679 45.6284 22.3201 45.5109 22.232C45.3933 22.1438 45.3075 22.0199 45.2662 21.8789L44.0391 17.6673C43.989 17.4945 44.0094 17.3088 44.096 17.151C44.1826 16.9932 44.3282 16.8762 44.501 16.8256L48.7126 15.5986C48.8855 15.5484 49.0712 15.5689 49.229 15.6555C49.3867 15.7421 49.5037 15.8878 49.5543 16.0605L50.7813 20.2721C50.8315 20.4449 50.811 20.6306 50.7244 20.7884C50.6379 20.9462 50.4922 21.0632 50.3195 21.1138L46.1079 22.3408C46.0463 22.3588 45.9825 22.368 45.9183 22.368Z" fill="black" fill-opacity="0.72"/>
<path d="M7.52224 15.4884C7.50963 15.4451 7.49463 15.4026 7.47731 15.361C7.35956 15.0751 7.14033 14.8429 6.86177 14.7089C6.5832 14.575 6.26495 14.5486 5.96815 14.635C5.67136 14.7215 5.41697 14.9145 5.25387 15.1771C5.09076 15.4397 5.03044 15.7533 5.08451 16.0576C5.0921 16.102 5.10222 16.1459 5.1148 16.1892C5.19107 16.4495 5.34962 16.6782 5.56671 16.8408C5.7838 17.0035 6.04775 17.0915 6.31903 17.0916C6.43747 17.0919 6.55533 17.075 6.66893 17.0415C6.98779 16.9483 7.25669 16.7325 7.41666 16.4413C7.57662 16.1502 7.61459 15.8075 7.52224 15.4884ZM6.61044 16.8409C6.34452 16.9181 6.05884 16.8867 5.81606 16.7536C5.57328 16.6204 5.39321 16.3964 5.31533 16.1307C5.3031 16.0874 5.29333 16.0435 5.28605 15.9991C5.24688 15.7484 5.30038 15.4919 5.43656 15.2777C5.57273 15.0636 5.78226 14.9063 6.02595 14.8354C6.26965 14.7645 6.53083 14.7848 6.76065 14.8925C6.99048 15.0001 7.17321 15.1879 7.27469 15.4205C7.2936 15.4613 7.30932 15.5036 7.32171 15.5469C7.39879 15.8128 7.36717 16.0984 7.23381 16.3411C7.10045 16.5837 6.87625 16.7635 6.61044 16.8409V16.8409Z" fill="black"/>
<path d="M4.44838 16.3835C4.38154 16.1539 4.38796 15.9092 4.46675 15.6835C4.54554 15.4578 4.69276 15.2623 4.88792 15.1242C4.70508 15.1153 4.52276 15.1502 4.35614 15.226C4.18952 15.3018 4.04343 15.4163 3.93004 15.5601C3.81665 15.7038 3.73924 15.8725 3.70427 16.0522C3.66929 16.2319 3.67776 16.4173 3.72897 16.5931C3.78018 16.7688 3.87264 16.9298 3.99866 17.0626C4.12467 17.1954 4.28059 17.2961 4.45343 17.3564C4.62627 17.4168 4.81101 17.4349 4.99228 17.4094C5.17355 17.3838 5.3461 17.3153 5.49554 17.2096C5.25674 17.198 5.02753 17.1121 4.83983 16.964C4.65213 16.8159 4.5153 16.613 4.44838 16.3835Z" fill="#55229E"/>
<path d="M36.9165 21.5597C36.8943 21.4798 36.8565 21.405 36.8054 21.3397C36.7542 21.2744 36.6907 21.2198 36.6184 21.1791C36.5462 21.1383 36.4666 21.1122 36.3842 21.1023C36.3018 21.0923 36.2183 21.0987 36.1384 21.1211L29.2043 23.0606L28.4575 23.2695H33.1471L33.8939 23.0606L36.4789 22.3378C36.64 22.2926 36.7766 22.1852 36.8587 22.0393C36.9407 21.8934 36.9615 21.7209 36.9165 21.5597Z" fill="#CCCCCC"/>
<path d="M32.0107 20.111C31.9655 19.9498 31.8582 19.8132 31.7122 19.7311C31.5663 19.649 31.3938 19.6283 31.2326 19.6734L20.8278 22.5832C20.6824 22.6244 20.5565 22.7162 20.4728 22.842C20.3891 22.9678 20.3531 23.1194 20.3713 23.2694H23.065L23.8128 23.0605L31.5731 20.8902C31.7343 20.8448 31.871 20.7372 31.953 20.5911C32.0351 20.445 32.0558 20.2724 32.0107 20.111Z" fill="#CCCCCC"/>
<path d="M58.5068 22.77H8.05973C7.86589 22.7702 7.68006 22.8473 7.54299 22.9843C7.40593 23.1214 7.32883 23.3072 7.32861 23.5011V53.3724C7.32882 53.5662 7.40592 53.7521 7.54298 53.8892C7.68005 54.0262 7.86589 54.1033 8.05973 54.1035H58.5068C58.7006 54.1033 58.8865 54.0262 59.0235 53.8891C59.1606 53.7521 59.2377 53.5662 59.2379 53.3724V23.5011C59.2377 23.3072 59.1606 23.1214 59.0235 22.9843C58.8865 22.8473 58.7006 22.7702 58.5068 22.77ZM59.029 53.3724C59.029 53.5109 58.9739 53.6437 58.876 53.7416C58.7781 53.8395 58.6453 53.8946 58.5068 53.8946H8.05973C7.92124 53.8946 7.78844 53.8395 7.69052 53.7416C7.59259 53.6437 7.53755 53.5109 7.5375 53.3724V23.5011C7.53756 23.3626 7.5926 23.2298 7.69053 23.1319C7.78845 23.0339 7.92124 22.9789 8.05973 22.9788H58.5068C58.6453 22.9789 58.7781 23.0339 58.876 23.1319C58.9739 23.2298 59.029 23.3626 59.029 23.5011V53.3724Z" fill="#55229E"/>
<path d="M13.2585 27.1339C13.0106 27.1339 12.7683 27.0604 12.5621 26.9227C12.356 26.785 12.1954 26.5893 12.1005 26.3602C12.0057 26.1312 11.9808 25.8792 12.0292 25.6361C12.0776 25.393 12.1969 25.1696 12.3722 24.9944C12.5475 24.8191 12.7708 24.6997 13.014 24.6513C13.2571 24.603 13.5091 24.6278 13.7381 24.7227C13.9671 24.8175 14.1629 24.9782 14.3006 25.1843C14.4383 25.3904 14.5118 25.6327 14.5118 25.8806C14.5114 26.2129 14.3793 26.5315 14.1443 26.7664C13.9093 27.0014 13.5908 27.1336 13.2585 27.1339ZM13.2585 24.8361C13.0519 24.8361 12.85 24.8974 12.6782 25.0122C12.5064 25.1269 12.3726 25.2901 12.2935 25.4809C12.2145 25.6718 12.1938 25.8818 12.2341 26.0844C12.2744 26.287 12.3739 26.4731 12.5199 26.6191C12.666 26.7652 12.8521 26.8647 13.0547 26.905C13.2573 26.9453 13.4673 26.9246 13.6582 26.8455C13.849 26.7665 14.0121 26.6326 14.1269 26.4609C14.2417 26.2891 14.3029 26.0872 14.3029 25.8806C14.3026 25.6037 14.1925 25.3382 13.9967 25.1424C13.8009 24.9466 13.5354 24.8365 13.2585 24.8361Z" fill="black"/>
<path d="M11.3101 25.8806C11.3102 25.6415 11.3848 25.4084 11.5235 25.2137C11.6623 25.019 11.8584 24.8725 12.0844 24.7945C11.9113 24.7348 11.7265 24.7173 11.5453 24.7435C11.3642 24.7697 11.1919 24.8388 11.0428 24.9451C10.8937 25.0513 10.7722 25.1917 10.6884 25.3544C10.6045 25.5171 10.5608 25.6975 10.5608 25.8806C10.5608 26.0636 10.6045 26.2441 10.6884 26.4068C10.7722 26.5695 10.8937 26.7099 11.0428 26.8161C11.1919 26.9224 11.3642 26.9915 11.5453 27.0177C11.7265 27.0439 11.9113 27.0264 12.0844 26.9667C11.8584 26.8887 11.6623 26.7421 11.5235 26.5475C11.3848 26.3528 11.3102 26.1197 11.3101 25.8806Z" fill="#55229E"/>
<path d="M18.3389 40.6887C18.0897 40.6884 17.8508 40.5893 17.6746 40.413C17.4983 40.2368 17.3992 39.9979 17.3989 39.7487V36.9287C17.3989 36.6793 17.498 36.4403 17.6742 36.264C17.8505 36.0877 18.0896 35.9886 18.3389 35.9886C18.5882 35.9886 18.8273 36.0877 19.0036 36.264C19.1799 36.4403 19.2789 36.6793 19.2789 36.9287V39.7487C19.2787 39.9979 19.1795 40.2368 19.0033 40.413C18.8271 40.5893 18.5882 40.6884 18.3389 40.6887Z" fill="black" fill-opacity="0.72"/>
<path d="M20.8458 40.6887C20.5965 40.6884 20.3576 40.5893 20.1814 40.413C20.0052 40.2368 19.906 39.9979 19.9058 39.7487V36.9287C19.9058 36.6793 20.0048 36.4403 20.1811 36.264C20.3574 36.0877 20.5965 35.9886 20.8458 35.9886C21.0951 35.9886 21.3342 36.0877 21.5104 36.264C21.6867 36.4403 21.7858 36.6793 21.7858 36.9287V39.7487C21.7855 39.9979 21.6864 40.2368 21.5101 40.413C21.3339 40.5893 21.095 40.6884 20.8458 40.6887Z" fill="black" fill-opacity="0.72"/>
<path d="M23.3528 40.6887C23.1036 40.6884 22.8647 40.5893 22.6885 40.413C22.5123 40.2368 22.4131 39.9979 22.4128 39.7487V36.9287C22.4128 36.6793 22.5119 36.4403 22.6882 36.264C22.8644 36.0877 23.1035 35.9886 23.3528 35.9886C23.6022 35.9886 23.8412 36.0877 24.0175 36.264C24.1938 36.4403 24.2929 36.6793 24.2929 36.9287V39.7487C24.2926 39.9979 24.1934 40.2368 24.0172 40.413C23.841 40.5893 23.6021 40.6884 23.3528 40.6887Z" fill="black" fill-opacity="0.72"/>
<path d="M27.2174 40.6887C26.9681 40.6884 26.7292 40.5893 26.553 40.413C26.3768 40.2368 26.2776 39.9979 26.2773 39.7487V36.9287C26.2773 36.6793 26.3764 36.4403 26.5527 36.264C26.729 36.0877 26.968 35.9886 27.2174 35.9886C27.4667 35.9886 27.7057 36.0877 27.882 36.264C28.0583 36.4403 28.1574 36.6793 28.1574 36.9287V39.7487C28.1571 39.9979 28.0579 40.2368 27.8817 40.413C27.7055 40.5893 27.4666 40.6884 27.2174 40.6887Z" fill="#55229E"/>
<path d="M29.7237 40.6887C29.4745 40.6884 29.2356 40.5893 29.0593 40.413C28.8831 40.2368 28.784 39.9979 28.7837 39.7487V36.9287C28.7837 36.6793 28.8827 36.4403 29.059 36.264C29.2353 36.0877 29.4744 35.9886 29.7237 35.9886C29.973 35.9886 30.2121 36.0877 30.3884 36.264C30.5647 36.4403 30.6637 36.6793 30.6637 36.9287V39.7487C30.6634 39.9979 30.5643 40.2368 30.3881 40.413C30.2118 40.5893 29.9729 40.6884 29.7237 40.6887Z" fill="#55229E"/>
<path d="M32.2305 40.6887C31.9813 40.6884 31.7424 40.5893 31.5662 40.413C31.3899 40.2368 31.2908 39.9979 31.2905 39.7487V36.9287C31.2905 36.6793 31.3896 36.4403 31.5658 36.264C31.7421 36.0877 31.9812 35.9886 32.2305 35.9886C32.4798 35.9886 32.7189 36.0877 32.8952 36.264C33.0715 36.4403 33.1705 36.6793 33.1705 36.9287V39.7487C33.1703 39.9979 33.0711 40.2368 32.8949 40.413C32.7187 40.5893 32.4798 40.6884 32.2305 40.6887Z" fill="#55229E"/>
<path d="M36.0948 40.6887C35.8456 40.6884 35.6067 40.5893 35.4304 40.413C35.2542 40.2368 35.1551 39.9979 35.1548 39.7487V36.9287C35.1548 36.6793 35.2538 36.4403 35.4301 36.264C35.6064 36.0877 35.8455 35.9886 36.0948 35.9886C36.3441 35.9886 36.5832 36.0877 36.7595 36.264C36.9358 36.4403 37.0348 36.6793 37.0348 36.9287V39.7487C37.0345 39.9979 36.9354 40.2368 36.7592 40.413C36.5829 40.5893 36.344 40.6884 36.0948 40.6887Z" fill="#55229E"/>
<path d="M38.6014 40.6887C38.3522 40.6884 38.1132 40.5893 37.937 40.413C37.7608 40.2368 37.6617 39.9979 37.6614 39.7487V36.9287C37.6614 36.6793 37.7604 36.4403 37.9367 36.264C38.113 36.0877 38.3521 35.9886 38.6014 35.9886C38.8507 35.9886 39.0898 36.0877 39.2661 36.264C39.4424 36.4403 39.5414 36.6793 39.5414 36.9287V39.7487C39.5411 39.9979 39.442 40.2368 39.2658 40.413C39.0895 40.5893 38.8506 40.6884 38.6014 40.6887Z" fill="#55229E"/>
<path d="M41.108 40.6887C40.8588 40.6884 40.6198 40.5893 40.4436 40.413C40.2674 40.2368 40.1683 39.9979 40.168 39.7487V36.9287C40.168 36.6793 40.267 36.4403 40.4433 36.264C40.6196 36.0877 40.8587 35.9886 41.108 35.9886C41.3573 35.9886 41.5964 36.0877 41.7727 36.264C41.9489 36.4403 42.048 36.6793 42.048 36.9287V39.7487C42.0477 39.9979 41.9486 40.2368 41.7723 40.413C41.5961 40.5893 41.3572 40.6884 41.108 40.6887Z" fill="#55229E"/>
<path d="M44.9727 40.6887C44.7235 40.6884 44.4846 40.5893 44.3084 40.413C44.1321 40.2368 44.033 39.9979 44.0327 39.7487V36.9287C44.0327 36.6793 44.1318 36.4403 44.308 36.264C44.4843 36.0877 44.7234 35.9886 44.9727 35.9886C45.222 35.9886 45.4611 36.0877 45.6374 36.264C45.8137 36.4403 45.9127 36.6793 45.9127 36.9287V39.7487C45.9124 39.9979 45.8133 40.2368 45.6371 40.413C45.4609 40.5893 45.2219 40.6884 44.9727 40.6887Z" fill="black" fill-opacity="0.72"/>
<path d="M47.4796 40.6887C47.2303 40.6884 46.9914 40.5893 46.8152 40.413C46.639 40.2368 46.5398 39.9979 46.5396 39.7487V36.9287C46.5396 36.6793 46.6386 36.4403 46.8149 36.264C46.9912 36.0877 47.2303 35.9886 47.4796 35.9886C47.7289 35.9886 47.968 36.0877 48.1442 36.264C48.3205 36.4403 48.4196 36.6793 48.4196 36.9287V39.7487C48.4193 39.9979 48.3202 40.2368 48.1439 40.413C47.9677 40.5893 47.7288 40.6884 47.4796 40.6887Z" fill="black" fill-opacity="0.72"/>
<path d="M49.9857 40.6887C49.7364 40.6884 49.4975 40.5893 49.3213 40.413C49.1451 40.2368 49.0459 39.9979 49.0457 39.7487V36.9287C49.0457 36.6793 49.1447 36.4403 49.321 36.264C49.4973 36.0877 49.7364 35.9886 49.9857 35.9886C50.235 35.9886 50.4741 36.0877 50.6503 36.264C50.8266 36.4403 50.9257 36.6793 50.9257 36.9287V39.7487C50.9254 39.9979 50.8263 40.2368 50.65 40.413C50.4738 40.5893 50.2349 40.6884 49.9857 40.6887Z" fill="black" fill-opacity="0.72"/>
<path d="M24.7121 51.1506H11.1927C11.0251 51.1506 10.8645 51.0841 10.746 50.9656C10.6276 50.8472 10.561 50.6865 10.561 50.519C10.561 50.3515 10.6276 50.1908 10.746 50.0724C10.8645 49.9539 11.0251 49.8874 11.1927 49.8874H24.7121C24.8796 49.8874 25.0402 49.9539 25.1587 50.0724C25.2771 50.1908 25.3437 50.3515 25.3437 50.519C25.3437 50.6865 25.2771 50.8472 25.1587 50.9656C25.0402 51.0841 24.8796 51.1506 24.7121 51.1506Z" fill="#E6E6E6"/>
<path d="M20.3781 48.4351H15.5276C15.3601 48.4351 15.1994 48.3685 15.081 48.2501C14.9625 48.1316 14.896 47.9709 14.896 47.8034C14.896 47.6359 14.9625 47.4753 15.081 47.3568C15.1994 47.2384 15.3601 47.1718 15.5276 47.1718H20.3781C20.5456 47.1718 20.7063 47.2384 20.8247 47.3568C20.9432 47.4753 21.0097 47.6359 21.0097 47.8034C21.0097 47.9709 20.9432 48.1316 20.8247 48.2501C20.7063 48.3685 20.5456 48.4351 20.3781 48.4351Z" fill="#E6E6E6"/>
<path d="M59.2815 29.3041H7.79004V29.513H59.2815V29.3041Z" fill="#55229E"/>
</svg>
