<svg width="79" height="48" viewBox="0 0 79 48" fill="none" xmlns="http://www.w3.org/2000/svg">
<path d="M77.7504 19.9783C74.7889 17.3915 71.3593 15.5491 67.6461 14.1653C55.8587 9.7717 41.1946 9.99085 29.4069 5.59797C26.4506 4.49628 23.6771 3.10535 21.1731 1.27881C20.8918 1.07369 20.5827 0.911112 20.2573 0.789851C18.6103 0.176053 16.5562 0.624853 15.703 1.99245L1.06218 25.4584C0.479334 26.3925 0.618884 27.5357 1.50572 28.3093C4.46677 30.8969 7.89631 32.7392 11.6096 34.123C23.3974 38.5159 38.0624 38.2971 49.8502 42.69C52.8065 43.7917 55.5799 45.1826 58.084 47.0091C58.3653 47.2143 58.6743 47.3768 58.9997 47.4981C60.6468 48.1119 62.7008 47.6631 63.5541 46.2955L78.1944 22.8303C78.7768 21.8951 78.6368 20.7526 77.7504 19.9783ZM19.3087 5.28795C21.0017 6.37832 22.8947 7.31441 24.8991 8.18537C22.9801 10.1495 19.4849 10.8662 16.5181 9.76057L19.3087 5.28795ZM6.15664 26.3678L8.36157 22.8338C11.6509 24.0596 13.0539 27.0684 11.6254 29.6474C9.55269 28.71 7.74485 27.626 6.15664 26.3678ZM35.1977 31.2447C30.9685 29.6687 29.5253 25.2118 31.9716 21.291C34.4183 17.3694 39.8298 15.4679 44.058 17.0436C48.2862 18.6193 49.7308 23.0758 47.2841 26.9974C44.8369 30.9197 39.4249 32.8201 35.1977 31.2447ZM59.947 43.0004C58.4728 42.0508 56.8455 41.2201 55.1378 40.4388C56.9032 38.7192 59.8869 38.0261 62.6106 38.7312L59.947 43.0004ZM70.8429 25.5367C68.067 24.1458 66.9632 21.3834 68.342 18.9937C70.1119 19.8511 71.6999 20.813 73.099 21.9206L70.8429 25.5367Z" fill="#55229E" fill-opacity="0.11"/>
</svg>
