<svg width="61" height="40" viewBox="0 0 61 40" fill="none" xmlns="http://www.w3.org/2000/svg">
<path d="M35.3096 22.626C37.854 15.7481 37.8075 8.8878 35.17 2.04507L43.5813 1.98802C45.6519 8.68515 45.7004 15.8443 43.7209 22.5689L35.3096 22.626Z" fill="#C4C4C4" stroke="#3F3D56" stroke-width="0.357937" stroke-miterlimit="10"/>
<path d="M37.0292 19.7507C38.8657 14.7867 38.8321 9.83536 36.9285 4.89669L42.9993 4.85552C44.4937 9.6891 44.5287 14.8562 43.1 19.7096L37.0292 19.7507Z" fill="#57B894" stroke="#3F3D56" stroke-width="0.357937" stroke-miterlimit="10"/>
<path d="M39.7119 12.0366C39.7233 13.7169 40.4536 15.0741 41.3432 15.0681C42.2327 15.062 42.9446 13.695 42.9332 12.0147C42.9218 10.3345 42.1915 8.97724 41.3019 8.98327C40.4124 8.98931 39.7005 10.3563 39.7119 12.0366Z" stroke="#3F3D56" stroke-width="0.357937" stroke-miterlimit="10"/>
<path d="M38.989 10.9678C39.0004 12.6481 39.7307 14.0053 40.6203 13.9993C41.5098 13.9932 42.2217 12.6262 42.2103 10.946C42.1989 9.26569 41.4686 7.90846 40.579 7.91449C39.6895 7.92052 38.9776 9.28754 38.989 10.9678Z" fill="black"/>
<path d="M35.3499 20.1264C41.1433 15.6303 44.7274 9.78046 46.1021 2.57702L53.2745 6.97142C51.4953 13.7518 47.755 19.8564 42.5222 24.5208L35.3499 20.1264Z" fill="#C4C4C4" stroke="#3F3D56" stroke-width="0.357937" stroke-miterlimit="10"/>
<path d="M38.3288 18.5938C42.5102 15.3487 45.097 11.1267 46.0892 5.92764L51.2657 9.09926C49.9816 13.9929 47.2821 18.3989 43.5054 21.7654L38.3288 18.5938Z" fill="#57B894" stroke="#3F3D56" stroke-width="0.357937" stroke-miterlimit="10"/>
<path d="M44.6805 13.4602C43.8027 14.893 43.706 16.4313 44.4645 16.896C45.223 17.3607 46.5495 16.576 47.4274 15.1432C48.3052 13.7104 48.4019 12.1722 47.6434 11.7075C46.8849 11.2427 45.5584 12.0275 44.6805 13.4602Z" stroke="#3F3D56" stroke-width="0.357937" stroke-miterlimit="10"/>
<path d="M44.6314 12.1708C43.7536 13.6035 43.6569 15.1418 44.4154 15.6065C45.1739 16.0712 46.5005 15.2865 47.3783 13.8537C48.2561 12.421 48.3529 10.8827 47.5943 10.418C46.8358 9.95324 45.5093 10.738 44.6314 12.1708Z" fill="black"/>
<path d="M37.6973 17.6823C45.0027 17.0422 51.1847 14.0674 56.2431 8.75776L59.8905 16.3373C54.7213 21.0722 48.2701 24.1766 41.3447 25.2619L37.6973 17.6823Z" fill="#C4C4C4" stroke="#3F3D56" stroke-width="0.357937" stroke-miterlimit="10"/>
<path d="M41.0319 18.0081C46.3045 17.5461 50.7662 15.3991 54.4171 11.5669L57.0496 17.0374C53.3188 20.4547 48.6627 22.6953 43.6644 23.4786L41.0319 18.0081Z" fill="#57B894" stroke="#3F3D56" stroke-width="0.357937" stroke-miterlimit="10"/>
<path d="M49.1523 17.1353C47.6382 17.864 46.7235 19.1044 47.1092 19.906C47.495 20.7076 49.0351 20.7668 50.5492 20.0382C52.0633 19.3095 52.9781 18.0691 52.5923 17.2675C52.2066 16.4659 50.6665 16.4067 49.1523 17.1353Z" stroke="#3F3D56" stroke-width="0.357937" stroke-miterlimit="10"/>
<path d="M49.8093 16.0246C48.2952 16.7532 47.3805 17.9937 47.7662 18.7952C48.152 19.5968 49.6921 19.656 51.2062 18.9274C52.7203 18.1988 53.6351 16.9583 53.2493 16.1567C52.8636 15.3551 51.3234 15.2959 49.8093 16.0246Z" fill="black"/>
<path d="M28.6594 23.5978C28.6594 23.5978 1.92592 27.8002 1.76696 21.3135C1.608 14.8268 10.1744 14.5654 10.1744 14.5654C10.1744 14.5654 15.4785 18.0728 24.0449 17.8115L31.8705 18.7893C31.8705 18.7893 42.3544 14.0953 42.4435 18.3227C42.5327 22.55 34.1156 24.7826 28.6594 23.5978Z" fill="#9F616A"/>
</svg>
