<svg width="57" height="64" viewBox="0 0 57 64" fill="none" xmlns="http://www.w3.org/2000/svg">
<path d="M43.2368 52.0916C41.8807 45.5065 40.1856 43.311 40.1856 43.311L39.538 42.8067L38.7593 42.1991L38.763 42.121L38.5783 42.058L38.5349 42.0241L38.4638 41.9693L38.4524 41.9816L38.4282 42.0068L34.9042 40.8037L30.4334 39.2786L28.3631 36.5761C28.0259 36.136 27.5919 35.7802 27.0949 35.5368C26.5979 35.2933 26.0515 35.1688 25.4986 35.1729L18.8868 35.222C17.9928 35.2287 17.1336 35.5709 16.4782 36.1815L12.1323 40.2299L5.36071 43.4779L5.34928 43.4664L5.27817 43.5174L4.23189 44.0198L4.27507 44.2455L3.62749 44.7148C3.62749 44.7148 1.93236 46.7577 0.576254 52.8851C0.231276 54.4442 0.0614649 57.7886 0.000172245 61.9099C-0.00290648 62.1184 0.0353144 62.3254 0.112612 62.5189C0.189909 62.7124 0.304741 62.8886 0.45043 63.0371C0.59612 63.1857 0.76976 63.3036 0.961255 63.3842C1.15275 63.4647 1.35828 63.5063 1.56589 63.5063H37.7345V63.5063H42.2488C42.4563 63.5062 42.6617 63.4647 42.8531 63.3843C43.0444 63.3038 43.218 63.186 43.3636 63.0376C43.5093 62.8893 43.6242 62.7133 43.7016 62.52C43.779 62.3267 43.8174 62.1199 43.8146 61.9115C43.7547 57.427 43.585 53.7824 43.2368 52.0916Z" fill="#55229E"/>
<path d="M23.3679 32.5439C28.2076 32.5439 32.1309 28.686 32.1309 23.927C32.1309 19.168 28.2076 15.3101 23.3679 15.3101C18.5283 15.3101 14.605 19.168 14.605 23.927C14.605 28.686 18.5283 32.5439 23.3679 32.5439Z" fill="#9E616A"/>
<path d="M14.2287 15.6458C14.6703 15.2939 15.1864 14.9701 15.7509 14.9883C16.3154 15.0065 16.8879 15.5159 16.771 16.068C17.8079 14.2337 19.4584 12.823 21.4327 12.0834C23.4071 11.3438 25.5791 11.3226 27.5676 12.0234C28.9707 12.518 30.3466 13.5074 30.6689 14.9585C30.7517 15.331 30.7694 15.7395 31.0023 16.042C31.2958 16.4233 31.8574 16.5096 32.3199 16.3755C32.3245 16.3741 32.3291 16.3728 32.3337 16.3714C32.4119 16.3447 32.4962 16.3421 32.5758 16.3639C32.6555 16.3856 32.7267 16.4307 32.7804 16.4934C32.8341 16.556 32.8677 16.6334 32.8769 16.7153C32.8862 16.7973 32.8706 16.8801 32.8322 16.9531L32.4352 17.6928C32.9356 17.8043 33.4556 17.7932 33.9509 17.6606C34.0331 17.639 34.1201 17.6435 34.1997 17.6732C34.2794 17.703 34.3479 17.7566 34.3959 17.8268C34.4438 17.897 34.4688 17.9803 34.4675 18.0652C34.4662 18.1502 34.4386 18.2327 34.3885 18.3013C33.0794 20.0969 30.8924 21.2564 28.6605 21.2428C27.0743 21.2331 25.4717 20.6869 23.9279 21.0514C23.3307 21.1923 22.7727 21.4651 22.2947 21.8497C21.8168 22.2342 21.4311 22.7208 21.1659 23.2737C20.9007 23.8266 20.7628 24.4317 20.7623 25.0448C20.7618 25.6579 20.8987 26.2633 21.163 26.8167C20.6887 26.2984 19.7719 26.4211 19.2868 26.9292C18.8017 27.4374 18.6761 28.1957 18.725 28.8962C18.7997 29.9676 19.2199 30.9771 19.6629 31.9597C15.9491 31.8429 12.4365 29.2403 11.2541 25.7201C10.0668 22.1853 11.3112 17.971 14.2287 15.6458Z" fill="#2F2E41"/>
<path d="M44.0347 21.5986C43.0691 22.016 42.0615 21.5586 41.6389 20.511C41.2099 19.4475 41.6106 18.3678 42.5917 17.9437C43.5729 17.5196 44.5626 17.9781 44.9985 19.0589C45.4279 20.1234 45.0316 21.1677 44.0347 21.5986ZM42.185 15.8502L41.4172 16.1821C41.2254 16.264 41.0109 16.2684 40.8161 16.1945C40.6213 16.1205 40.4604 15.9736 40.3652 15.7827L40.3273 15.7058C39.5011 14.1635 39.4065 12.2891 40.0476 10.1375C40.6415 8.2074 40.8881 6.84998 40.3921 5.62024C39.8185 4.19842 38.5938 3.75303 37.0321 4.39822C36.4263 4.66005 36.2336 4.65588 35.7569 5.14538C35.6532 5.25315 35.5296 5.33821 35.3935 5.39547C35.2574 5.45273 35.1115 5.48103 34.9646 5.47868C34.8226 5.47695 34.6823 5.44563 34.5522 5.38658C34.4221 5.32754 34.3049 5.24198 34.2074 5.13501C34.0197 4.92887 33.9145 4.65665 33.9131 4.37334C33.9117 4.09002 34.0142 3.81672 34.2 3.60863C35.0012 2.74041 35.9676 2.05354 37.0381 1.59136C40.3937 0.140914 42.0829 2.28229 42.8559 4.19863C43.612 6.07302 43.1867 7.81214 42.5033 10.0645C41.9306 11.936 41.964 13.3228 42.6145 14.7017C42.6615 14.806 42.6876 14.919 42.6913 15.0339C42.6951 15.1489 42.6763 15.2635 42.6362 15.3707C42.5961 15.478 42.5354 15.5758 42.4579 15.6582C42.3803 15.7406 42.2875 15.8059 42.185 15.8502L42.185 15.8502Z" fill="black"/>
<path d="M55.1761 20.4845C54.2104 20.9019 53.2028 20.4445 52.7803 19.3969C52.3513 18.3333 52.752 17.2536 53.7331 16.8296C54.7143 16.4054 55.7039 16.864 56.1398 17.9447C56.5693 19.0092 56.1729 20.0536 55.1761 20.4845ZM53.3263 14.7361L52.5585 15.068C52.3667 15.1499 52.1522 15.1543 51.9574 15.0803C51.7626 15.0064 51.6017 14.8594 51.5066 14.6686L51.4686 14.5917C50.6425 13.0494 50.5479 11.1749 51.189 9.02334C51.7828 7.09326 52.0295 5.73585 51.5334 4.5061C50.9599 3.08428 49.7352 2.6389 48.1734 3.28409C47.5677 3.54591 47.375 3.54174 46.8983 4.03124C46.7946 4.13902 46.671 4.22407 46.5349 4.28133C46.3987 4.3386 46.2529 4.3669 46.1059 4.36455C45.9639 4.36281 45.8237 4.33149 45.6936 4.27245C45.5635 4.21341 45.4462 4.12785 45.3488 4.02088C45.161 3.81473 45.0558 3.54252 45.0545 3.2592C45.0531 2.97589 45.1556 2.70259 45.3413 2.49449C46.1426 1.62627 47.1089 0.939406 48.1795 0.477226C51.535 -0.973222 53.2243 1.16816 53.9973 3.08449C54.7534 4.95888 54.328 6.69801 53.6447 8.95034C53.072 10.8219 53.1053 12.2087 53.7559 13.5876C53.8028 13.6918 53.829 13.8048 53.8327 13.9198C53.8364 14.0348 53.8177 14.1493 53.7775 14.2566C53.7374 14.3639 53.6768 14.4616 53.5992 14.544C53.5217 14.6264 53.4289 14.6917 53.3263 14.7361L53.3263 14.7361Z" fill="black"/>
</svg>
