<svg width="66" height="63" viewBox="0 0 66 63" fill="none" xmlns="http://www.w3.org/2000/svg">
<path d="M45.2402 62.0337C44.3351 62.036 43.4661 61.6793 42.8237 61.0417C42.1813 60.4041 41.818 59.5377 41.8136 58.6326V56.1743C39.2397 56.4624 30.4261 56.3956 27.8996 55.9897V58.5343C27.8929 59.4387 27.5288 60.3037 26.887 60.9408C26.2451 61.5779 25.3774 61.9354 24.473 61.9354C23.5686 61.9354 22.7009 61.5779 22.059 60.9408C21.4171 60.3037 21.0531 59.4387 21.0463 58.5343V53.5382C17.6245 51.6373 14.7719 48.8577 12.783 45.4862C10.794 42.1148 9.74078 38.2737 9.73193 34.3593C9.73193 27.6474 12.7738 21.3862 18.0775 17.1811C21.5259 14.4377 25.7157 12.7879 30.1088 12.4434C30.705 12.3967 31.305 12.373 31.892 12.373C33.9598 12.373 43.2897 12.6924 45.6305 13.3659L50.9682 8.06948C51.0467 7.99056 51.1469 7.93679 51.256 7.91504C51.3652 7.89329 51.4784 7.90454 51.5811 7.94735C51.6846 7.98853 51.7732 8.06004 51.8354 8.15251C51.8975 8.24498 51.9302 8.35408 51.9292 8.46547V9.30759L52.9685 8.27823C53.0469 8.19923 53.147 8.14539 53.2561 8.12359C53.3652 8.1018 53.4783 8.11305 53.5809 8.1559C53.6845 8.19706 53.7733 8.26859 53.8354 8.3611C53.8976 8.45361 53.9304 8.56276 53.9294 8.67423V18.0847C56.6078 20.4993 58.6492 23.5373 59.8727 26.9295C61.0962 30.3217 61.464 33.9633 60.9435 37.5316C60.423 41.1 59.0303 44.4848 56.8889 47.3862C54.7474 50.2876 51.9233 52.6159 48.6669 54.1649V58.6327C48.6624 59.5377 48.2992 60.4041 47.6568 61.0417C47.0144 61.6793 46.1453 62.036 45.2402 62.0337ZM42.083 55.8688V58.6326C42.0898 59.4655 42.4254 60.262 43.0168 60.8486C43.6081 61.4351 44.4073 61.7642 45.2402 61.7642C46.0731 61.7642 46.8723 61.4351 47.4637 60.8486C48.055 60.262 48.3907 59.4655 48.3975 58.6326V53.9947L48.4744 53.9582C52.1283 52.2244 55.2303 49.5117 57.4357 46.1215C60.2461 41.7953 61.4149 36.6059 60.7306 31.4926C60.0462 26.3793 57.5539 21.6799 53.7048 18.245L53.66 18.2048V8.67422C53.661 8.61631 53.6442 8.5595 53.6119 8.51144C53.5796 8.46338 53.5333 8.42638 53.4793 8.40542C53.4257 8.38248 53.3663 8.37628 53.3091 8.38766C53.2518 8.39903 53.1994 8.42744 53.1586 8.46915L51.6598 9.95356V8.46547C51.6608 8.40756 51.644 8.35075 51.6116 8.30269C51.5793 8.25463 51.5331 8.21763 51.4791 8.19667C51.4253 8.17376 51.3658 8.16763 51.3085 8.17909C51.2512 8.19054 51.1986 8.21904 51.1578 8.26086L45.7058 13.6707L45.6284 13.6464C43.4522 12.9653 33.9755 12.6424 31.8919 12.6424C31.3119 12.6424 30.7191 12.6658 30.1299 12.712C25.7902 13.0523 21.6513 14.6821 18.2449 17.3922C13.006 21.5459 10.0013 27.7301 10.0013 34.3593C10.0103 38.239 11.0579 42.0456 13.0353 45.3836C15.0128 48.7216 17.8479 51.4693 21.2462 53.3411L21.3157 53.3796V58.5343C21.3226 59.3671 21.6583 60.1635 22.2497 60.7499C22.841 61.3363 23.6401 61.6654 24.473 61.6654C25.3058 61.6654 26.1049 61.3363 26.6963 60.7499C27.2876 60.1635 27.6233 59.3671 27.6302 58.5343V55.6673L27.7898 55.6972C30.0602 56.1244 39.6203 56.1918 41.9308 55.8887L42.083 55.8688Z" fill="#55229E"/>
<path d="M10.6611 27.626C8.78174 27.3484 6.98438 26.6688 5.39149 25.6336C4.60234 25.1211 3.87179 24.5236 3.21294 23.8518C2.56265 23.1885 1.94055 22.4347 1.61845 21.5513C1.30855 20.7341 1.32452 19.829 1.66307 19.0232C1.99699 18.2223 2.63487 17.5865 3.43683 17.2553C4.2436 16.9335 5.21834 16.8991 6.0035 17.2515C6.37765 17.4155 6.70142 17.6761 6.94156 18.0065C7.05319 18.1589 7.13585 18.3305 7.1854 18.5127C7.23139 18.6779 7.23557 18.8519 7.19757 19.0191C7.15153 19.186 7.07034 19.3411 6.95943 19.474C6.84853 19.607 6.71049 19.7147 6.55455 19.7899C6.21137 19.966 5.83953 20.0794 5.4565 20.1248C5.07126 20.1774 4.51786 20.2251 4.20815 19.9159C4.1444 19.8547 4.09426 19.7808 4.06098 19.6989C4.0377 19.6363 4.02974 19.5689 4.03776 19.5025C4.03325 19.5318 4.05645 19.4389 4.05513 19.4426C4.05023 19.4564 4.02902 19.4898 4.05917 19.4384C4.06859 19.4215 4.07908 19.4051 4.09057 19.3895C4.08033 19.4027 4.05785 19.4248 4.098 19.3869C4.13117 19.3506 4.17382 19.3243 4.22114 19.3109C4.23979 19.3055 4.2587 19.3012 4.2774 19.2961C4.32491 19.2831 4.23003 19.2968 4.27865 19.2952C4.29741 19.2946 4.31639 19.2951 4.33508 19.2942C4.38277 19.2921 4.28804 19.2812 4.33374 19.2927C4.35148 19.2972 4.36906 19.3015 4.38654 19.307C4.42454 19.319 4.35963 19.2792 4.38538 19.309C4.41555 19.3439 4.3537 19.275 4.388 19.3088C4.40506 19.3256 4.42115 19.3433 4.43617 19.3619C4.49565 19.4206 4.57586 19.4536 4.65943 19.4536C4.743 19.4536 4.82321 19.4206 4.88269 19.3619C4.94014 19.3018 4.97219 19.2218 4.97219 19.1387C4.97219 19.0555 4.94014 18.9755 4.88269 18.9154C4.57135 18.5295 3.95638 18.6248 3.64144 18.951C3.23977 19.367 3.39883 20.0263 3.78953 20.3893C4.23183 20.8002 4.85826 20.8288 5.4272 20.7599C5.90803 20.7138 6.3766 20.5814 6.81041 20.369C7.24145 20.1572 7.57858 19.793 7.75651 19.3469C7.83684 19.1088 7.86569 18.8564 7.84116 18.6063C7.81663 18.3563 7.73927 18.1143 7.61421 17.8964C7.1119 16.952 6.07175 16.4678 5.04365 16.384C4.51433 16.3425 3.98204 16.4064 3.47758 16.572C2.97312 16.7376 2.50652 17.0016 2.10477 17.3488C1.3304 18.0459 0.853568 19.014 0.772869 20.0528C0.683128 21.1298 1.101 22.1757 1.71024 23.0449C2.34805 23.928 3.10916 24.7152 3.97035 25.3823C5.65396 26.7265 7.62882 27.6578 9.73691 28.1019C9.98766 28.1537 10.2397 28.198 10.4932 28.2349C10.5738 28.2545 10.6589 28.2425 10.731 28.2016C10.8032 28.1606 10.857 28.0937 10.8816 28.0144C10.9032 27.9337 10.8922 27.8477 10.851 27.775C10.8097 27.7023 10.7415 27.6488 10.6611 27.626L10.6611 27.626Z" fill="#55229E"/>
<path d="M58.8586 41.0876C60.406 41.0446 62.3318 40.9909 63.8155 39.9071C64.2573 39.5712 64.6203 39.1427 64.879 38.6517C65.1378 38.1606 65.286 37.619 65.3134 37.0646C65.3437 36.2087 65.0344 35.4615 64.4426 34.9615C63.6677 34.3067 62.5361 34.1531 61.3167 34.5115L62.5801 25.2784L61.6526 25.1513L60.1673 36.006L60.9418 35.6506C61.8398 35.2387 63.0724 35.0291 63.8383 35.6764C64.0264 35.8456 64.1729 36.0559 64.2665 36.291C64.3601 36.526 64.3982 36.7795 64.3779 37.0317C64.3551 37.4443 64.2438 37.8471 64.0515 38.2128C63.8592 38.5786 63.5903 38.8986 63.2632 39.1511C62.1087 39.9944 60.5736 40.1032 58.8325 40.1519L58.8586 41.0876Z" fill="#55229E"/>
<path d="M56.2939 26.0747H51.252V27.0109H56.2939V26.0747Z" fill="#55229E"/>
<path d="M36.6803 15.7043C36.3828 15.7043 29.3926 15.6932 29.3926 14.7276C29.3926 13.7621 36.3828 13.751 36.6803 13.751C36.9779 13.751 43.9681 13.7622 43.9681 14.7276C43.9681 15.6932 36.9779 15.7043 36.6803 15.7043ZM29.6659 14.7276C29.8572 15.0204 32.4267 15.4349 36.6803 15.4349C40.934 15.4349 43.5035 15.0204 43.6948 14.7276C43.5035 14.435 40.934 14.0204 36.6803 14.0204C32.4267 14.0204 29.8572 14.435 29.6659 14.7276V14.7276Z" fill="#55229E"/>
<path d="M40.7492 14.295C37.9958 14.2562 35.251 14.326 32.5149 14.5047C31.5797 14.5657 30.7705 14.8963 30.7705 15.4518C30.7705 15.9163 31.5732 16.4605 32.5149 16.399C35.2496 16.2204 37.9944 16.1506 40.7492 16.1894C42.9951 16.2211 42.9938 14.3267 40.7492 14.295Z" fill="#55229E" fill-opacity="0.2"/>
<path d="M33.8597 15.4915C32.8168 10.8608 30.3735 7.15278 26.5298 4.36759L31.0761 1.37185C34.5607 4.27784 37.1105 8.14737 38.4061 12.4958L33.8597 15.4915Z" fill="#C4C4C4" stroke="#3F3D56" stroke-width="0.231684" stroke-miterlimit="10"/>
<path d="M33.7804 13.3242C33.0277 9.98197 31.2642 7.30577 28.49 5.29558L31.7713 3.13345C34.2863 5.23081 36.1266 8.0236 37.0616 11.162L33.7804 13.3242Z" fill="#57B894" stroke="#3F3D56" stroke-width="0.231684" stroke-miterlimit="10"/>
<path d="M32.5172 8.19088C33.1157 9.09907 33.9906 9.57846 34.4714 9.26164C34.9522 8.94483 34.8568 7.95177 34.2584 7.04358C33.6599 6.1354 32.785 5.656 32.3042 5.97282C31.8234 6.28964 31.9188 7.2827 32.5172 8.19088Z" stroke="#3F3D56" stroke-width="0.231684" stroke-miterlimit="10"/>
<path d="M31.7482 7.86569C32.3466 8.77387 33.2215 9.25327 33.7023 8.93645C34.1831 8.61963 34.0878 7.62657 33.4893 6.71839C32.8909 5.8102 32.016 5.33081 31.5352 5.64763C31.0544 5.96444 31.1497 6.9575 31.7482 7.86569Z" fill="black"/>
<path d="M35.7915 14.707C37.0373 10.1266 36.6137 5.70625 34.5206 1.44589L39.9403 0.926488C41.6595 5.12551 42.1016 9.73844 41.2112 14.1876L35.7915 14.707Z" fill="#C4C4C4" stroke="#3F3D56" stroke-width="0.231684" stroke-miterlimit="10"/>
<path d="M36.7353 12.7545C37.6345 9.44868 37.3288 6.25834 35.8181 3.18347L39.7297 2.80859C40.9706 5.83919 41.2896 9.16853 40.647 12.3796L36.7353 12.7545Z" fill="#57B894" stroke="#3F3D56" stroke-width="0.231684" stroke-miterlimit="10"/>
<path d="M38.0224 7.62715C38.1261 8.70981 38.6749 9.54295 39.2481 9.48802C39.8212 9.43309 40.2018 8.51089 40.098 7.42823C39.9943 6.34557 39.4455 5.51243 38.8723 5.56736C38.2992 5.62229 37.9186 6.54449 38.0224 7.62715Z" stroke="#3F3D56" stroke-width="0.231684" stroke-miterlimit="10"/>
<path d="M37.4945 6.97963C37.5983 8.06229 38.1471 8.89543 38.7202 8.8405C39.2934 8.78557 39.674 7.86337 39.5702 6.78071C39.4664 5.69804 38.9177 4.8649 38.3445 4.91983C37.7713 4.97476 37.3908 5.89696 37.4945 6.97963Z" fill="black"/>
</svg>
